<svg xmlns="http://www.w3.org/2000/svg" viewBox="0 0 127.14 96.36" fill="#9D7BFF">
  <path d="M107.7 8.07A105.15 105.15 0 0 0 81.47.5a72.06 72.06 0 0 0-3.36 6.83
           97.68 97.68 0 0 0-29.06 0
           A72.37 72.37 0 0 0 45.69.5
           105.89 105.89 0 0 0 19.39 8.09
           C2.79 32.65-1.71 56.6.54 80.21
           a105.73 105.73 0 0 0 32.17 16.15
           77.7 77.7 0 0 0 6.89-11.11
           68.42 68.42 0 0 1-10.85-5.18
           c.91-.66 1.8-1.34 2.65-2.06
           20.87 9.78 43.48 9.78 64.1 0
           .87.72 1.76 1.4 2.65 2.06
           a68.68 68.68 0 0 1-10.87 5.19
           77 77 0 0 0 6.89 11.1
           105.25 105.25 0 0 0 32.19-16.15
           c2.64-27.57-4.51-51.48-19.84-72.14ZM42.45 65.69
           c-6.05 0-11.02-5.55-11.02-12.36
           0-6.81 4.86-12.36 11.02-12.36
           6.16 0 11.12 5.55 11.02 12.36
           0 6.81-4.86 12.36-11.02 12.36Zm42.24 0
           c-6.05 0-11.02-5.55-11.02-12.36
           0-6.81 4.86-12.36 11.02-12.36
           6.16 0 11.12 5.55 11.02 12.36
           0 6.81-4.86 12.36-11.02 12.36Z"></path>
</svg>